# xmcd
# Copyright (C) 1995-1998 Ti Kan
#
# Track frame offsets:
#       150
#       36504
#       55112
#       98464
#       112907
#       166057
#       185302
#       235092
#
# Disc length: 3230 seconds
#
# Revision: 0
# Processed by: cddbd v1.5.2PL0 Copyright (c) Steve Scherf et al.
# Submitted via: CD-Transfer v1.0
#
DISCID=550c9c08
DTITLE=Genesis - Banks, Collins, Gabriel, Hackett, Rutherford
DYEAR=73
DGENRE=
TTITLE0=Dancing With The Moonlight Knight
TTITLE1=I Know What I Like (In Your Wardrobe)
TTITLE2=Firth Of Fifth
TTITLE3=More Fool Me
TTITLE4=Battle Ofepping Forest, The
TTITLE5=After The Ordeal
TTITLE6=Cinema Show, The
TTITLE7=Aisle Of Plenty
EXTD=
EXTT0=
EXTT1=
EXTT2=
EXTT3=
EXTT4=
EXTT5=
EXTT6=
EXTT7=
PLAYORDER=
